<svg width="29" height="26" viewBox="0 0 29 26" fill="none" xmlns="http://www.w3.org/2000/svg">
<path d="M17.0837 8.42234C17.2198 8.51734 17.3232 8.59234 17.4291 8.66234C18.813 9.56483 20.1919 10.4723 21.5809 11.3623C22.08 11.6823 22.3472 12.1123 22.3674 12.6973C22.3724 12.8373 22.3749 12.9773 22.3749 13.1173C22.3749 16.5198 22.3749 19.9223 22.3749 23.3248C22.3749 23.5073 22.3623 23.6923 22.3472 23.8748C22.2766 24.6423 21.5607 25.1598 20.8725 25.1573C17.8551 25.1448 14.8351 25.1523 11.8152 25.1523C10.5195 25.1523 9.22127 25.1348 7.92557 25.1598C7.07605 25.1748 6.39795 24.4748 6.40047 23.6473C6.4156 20.0073 6.40804 16.3673 6.40551 12.7273C6.40551 12.1498 6.65003 11.7148 7.13655 11.3998C8.52301 10.5023 9.90442 9.59984 11.2884 8.69734C11.4119 8.61734 11.5303 8.52734 11.6816 8.41984C11.548 8.32484 11.4522 8.25484 11.3539 8.18984C8.83307 6.54734 6.31224 4.90484 3.7889 3.26234C3.72588 3.21984 3.66286 3.17484 3.5948 3.14234C3.3049 3.01234 2.99988 3.16484 2.95451 3.47734C2.9293 3.63734 2.93686 3.79984 2.93686 3.96234C2.93686 10.8548 2.93686 17.7448 2.93686 24.6373C2.93686 24.7948 2.92426 24.9548 2.91669 25.1323H0.0177478C0.0127061 24.9898 0.00262281 24.8523 0.00262281 24.7173C0.00262281 20.8923 0.00262281 17.0698 0.00262281 13.2448C0.00262281 10.0248 -0.00241883 6.80734 0.00514364 3.58734C0.00766446 2.39734 0.489142 1.41734 1.50503 0.759838C2.7352 -0.0376615 4.01325 -0.0351615 5.25098 0.744838C6.67524 1.64234 8.07682 2.57484 9.48848 3.49484C11.0186 4.48984 12.5513 5.47984 14.0713 6.48734C14.3108 6.64734 14.4722 6.62984 14.7041 6.47734C17.5854 4.58984 20.4717 2.71484 23.3581 0.834838C23.8471 0.517338 24.3639 0.289838 24.9512 0.214838C25.952 0.0898384 26.8317 0.359838 27.5855 1.00234C28.3241 1.62984 28.7148 2.44234 28.7451 3.41234C28.7501 3.52984 28.7476 3.64984 28.7476 3.76984C28.7476 10.7273 28.7476 17.6823 28.7476 24.6398C28.7476 24.7998 28.7476 24.9573 28.7476 25.1348H25.8335C25.8285 24.9948 25.8234 24.8598 25.8234 24.7248C25.8234 20.0798 25.8234 15.4348 25.8234 10.7898C25.8234 8.44484 25.8234 6.10234 25.8234 3.75734C25.8234 3.52734 25.8385 3.29484 25.5965 3.15984C25.3419 3.01984 25.1403 3.15984 24.9361 3.29234C22.4253 4.92984 19.9121 6.56484 17.3988 8.20234C17.3005 8.26484 17.2098 8.33734 17.0812 8.42734L17.0837 8.42234ZM14.3839 10.1748C14.2755 10.2398 14.1898 10.2873 14.1092 10.3423C12.6168 11.3148 11.127 12.2898 9.62713 13.2523C9.40025 13.3998 9.31455 13.5573 9.31455 13.8273C9.32463 16.4948 9.31959 19.1623 9.32211 21.8298C9.32211 21.9173 9.32211 22.0023 9.32715 22.0898C9.33219 22.1898 9.38765 22.2498 9.491 22.2548C9.56663 22.2598 9.64225 22.2598 9.7204 22.2598C12.8261 22.2598 15.9317 22.2598 19.0374 22.2598C19.1533 22.2598 19.2693 22.2473 19.4104 22.2373C19.418 22.1048 19.4281 21.9998 19.4281 21.8948C19.4281 19.1848 19.4281 16.4723 19.4331 13.7623C19.4331 13.5298 19.355 13.3948 19.1584 13.2673C17.6887 12.3198 16.2266 11.3623 14.7595 10.4073C14.641 10.3298 14.52 10.2573 14.3839 10.1723V10.1748Z" fill="#E35410"/>
</svg>
